<svg width="238" height="61" viewBox="0 0 238 61" fill="none" xmlns="http://www.w3.org/2000/svg">
<path d="M40.4776 0H43.1621L28.5583 60.2102H25.8737L40.4776 0ZM20.3614 10.4713L19.753 13.0893H0.496094V10.4713H20.3614ZM21.5786 5.2357L20.9699 7.85352H0.496094V5.2357H21.5786ZM22.7238 0L22.2229 2.61782H0.496094V0H22.7238ZM24.5494 0H27.1981L12.5943 60.2102H9.94558L24.5494 0ZM29.8469 0H32.5314L17.9276 60.2102H15.243L29.8469 0ZM35.1802 0H37.8288L23.225 60.2102H20.5762L35.1802 0Z" fill="white"/>
<path d="M62.7291 39.5204V43.8346C62.6779 45.4234 62.9991 46.8155 63.6919 48.0059C64.3082 49.2675 65.6174 49.8925 67.6254 49.8925C69.3196 49.8925 70.5841 49.4278 71.4053 48.4996C72.2524 47.6666 72.6759 46.6196 72.6759 45.3638C72.6247 42.8171 71.4505 40.5737 69.1466 38.6219C66.894 36.694 64.2438 34.8075 61.2025 32.951C59.8421 31.8323 58.507 30.7432 57.1979 29.6723C55.8119 28.6488 54.5926 27.518 53.5273 26.2863C52.462 25.0725 51.6342 23.6502 51.044 22.0079C50.3252 20.3894 49.9658 18.515 49.9658 16.3726C50.1199 5.3166 56.2031 -0.140058 68.2158 0.0027309C80.2291 0.193136 86.1905 5.07858 86.0881 14.6531V19.8836H73.029V16.7477C73.0802 15.2064 72.8368 13.7665 72.3036 12.4335C71.6879 11.0768 70.3275 10.3805 68.2357 10.333C64.8215 10.3805 63.0888 11.8444 63.0376 14.7184C63.0376 15.5991 63.4099 16.4798 64.154 17.3545C64.8986 18.2591 65.8222 19.223 66.9259 20.2407C69.3394 22.24 72.0728 24.2572 75.134 26.3043C76.4877 27.3753 77.8933 28.3989 79.3501 29.3687C80.7038 30.3923 81.9937 31.5942 83.2197 32.9688C84.4192 34.3255 85.3754 35.974 86.0941 37.9256C86.7809 39.8775 87.1273 42.3351 87.1273 45.3044C87.1273 46.7089 86.8388 48.238 86.255 49.904C85.5935 51.6182 84.5349 53.2426 83.0655 54.7898C81.6214 56.3605 79.6386 57.6341 77.1041 58.6039C74.5496 59.6274 71.4119 60.1632 67.6899 60.2102C64.2245 60.1632 61.2983 59.675 58.9179 58.7528C56.5114 57.8306 54.5862 56.6281 53.1487 55.1587C51.7562 53.7127 50.7422 52.1353 50.1135 50.4217C49.5037 48.7853 49.2021 47.2326 49.2021 45.7567V39.4907L62.7291 39.5204Z" fill="url(#paint0_linear_4468_5464)"/>
<path d="M92.7277 0.588623H106.556V48.6566H121.165V59.4384H92.7217V0.588623H92.7277Z" fill="url(#paint1_linear_4468_5464)"/>
<path d="M125.789 16.8256C125.835 11.1555 127.417 6.91348 130.537 4.09333C133.564 1.3684 137.506 0 142.361 0C147.257 0 151.222 1.3684 154.255 4.09929C157.351 6.92536 158.922 11.1795 158.974 16.8553V43.3611C158.722 54.3323 153.187 59.9486 142.367 60.2102C131.502 59.9486 125.978 54.3443 125.794 43.3849V16.8256H125.789ZM138.648 44.5273C138.648 44.9319 138.671 45.3959 138.717 45.9195C138.808 46.5142 138.945 47.1211 139.128 47.7401C139.562 49.1204 140.642 49.8346 142.361 49.8817C143.35 49.8817 144.104 49.6556 144.629 49.2036C145.132 48.8226 145.492 48.335 145.698 47.7401C146.018 46.431 146.155 45.3603 146.109 44.5273V15.6475C146.155 14.529 146.018 13.3868 145.698 12.2205C145.492 11.6495 145.138 11.1615 144.629 10.7569C144.104 10.4713 143.344 10.3285 142.361 10.3285C140.642 10.3763 139.562 11.0068 139.128 12.2205C138.763 13.3868 138.602 14.529 138.648 15.6475V44.5273Z" fill="url(#paint2_linear_4468_5464)"/>
<path d="M163.943 0.588623H197.128V12.1388H187.875V59.4384H173.171V12.1388H163.95V0.588623H163.943Z" fill="url(#paint3_linear_4468_5464)"/>
<path d="M213.105 39.5204V43.8346C213.054 45.4234 213.375 46.8155 214.068 48.0059C214.684 49.2675 215.994 49.8925 218.002 49.8925C219.696 49.8925 220.96 49.4278 221.783 48.4996C222.629 47.6666 223.053 46.6196 223.053 45.3638C223 42.8171 221.827 40.5737 219.523 38.6219C217.27 36.694 214.62 34.8075 211.578 32.951C210.218 31.8323 208.883 30.7432 207.574 29.6723C206.188 28.6488 204.969 27.518 203.903 26.2863C202.838 25.0725 202.01 23.6502 201.42 22.0079C200.702 20.3894 200.342 18.515 200.342 16.3726C200.496 5.3166 206.579 -0.140058 218.593 0.0027309C230.606 0.193136 236.568 5.07858 236.464 14.6531V19.8836H223.405V16.7477C223.458 15.2064 223.214 13.7665 222.679 12.4335C222.064 11.0768 220.703 10.3805 218.611 10.333C215.198 10.3805 213.465 11.8444 213.414 14.7184C213.414 15.5991 213.786 16.4798 214.53 17.3545C215.275 18.2591 216.199 19.223 217.303 20.2407C219.716 22.24 222.448 24.2572 225.511 26.3043C226.865 27.3753 228.27 28.3989 229.727 29.3687C231.081 30.3923 232.369 31.5942 233.596 32.9688C234.796 34.3255 235.752 35.974 236.471 37.9256C237.157 39.8775 237.504 42.3351 237.504 45.3044C237.504 46.7089 237.214 48.238 236.631 49.904C235.97 51.6182 234.911 53.2426 233.442 54.7898C231.998 56.3605 230.015 57.6341 227.48 58.6039C224.926 59.6274 221.789 60.1632 218.065 60.2102C214.601 60.1632 211.675 59.675 209.294 58.7528C206.887 57.8306 204.962 56.6281 203.525 55.1587C202.133 53.7127 201.119 52.1353 200.49 50.4217C199.88 48.7853 199.578 47.2326 199.578 45.7567V39.4907L213.105 39.5204Z" fill="url(#paint4_linear_4468_5464)"/>
<defs>
<linearGradient id="paint0_linear_4468_5464" x1="66.3211" y1="62.7972" x2="59.635" y2="16.4875" gradientUnits="userSpaceOnUse">
<stop offset="0.00492611" stop-color="#35B56F"/>
<stop offset="1" stop-color="#B2FFAC"/>
</linearGradient>
<linearGradient id="paint1_linear_4468_5464" x1="105.56" y1="62.7968" x2="96.7856" y2="17.2114" gradientUnits="userSpaceOnUse">
<stop offset="0.00492611" stop-color="#35B56F"/>
<stop offset="1" stop-color="#B2FFAC"/>
</linearGradient>
<linearGradient id="paint2_linear_4468_5464" x1="140.768" y1="62.7972" x2="133.175" y2="16.775" gradientUnits="userSpaceOnUse">
<stop offset="0.00492611" stop-color="#35B56F"/>
<stop offset="1" stop-color="#B2FFAC"/>
</linearGradient>
<linearGradient id="paint3_linear_4468_5464" x1="178.923" y1="63.0193" x2="171.329" y2="16.9971" gradientUnits="userSpaceOnUse">
<stop offset="0.00492611" stop-color="#35B56F"/>
<stop offset="1" stop-color="#B2FFAC"/>
</linearGradient>
<linearGradient id="paint4_linear_4468_5464" x1="216.698" y1="62.7972" x2="210.011" y2="16.4875" gradientUnits="userSpaceOnUse">
<stop offset="0.00492611" stop-color="#35B56F"/>
<stop offset="1" stop-color="#B2FFAC"/>
</linearGradient>
</defs>
</svg>
